<svg xmlns="http://www.w3.org/2000/svg" xmlns:xlink="http://www.w3.org/1999/xlink" width="100%" height="100%" viewBox="94 230 566 149">
<path fill-rule="nonzero" fill="#3b2f20" fill-opacity="1" d="M 223.59375 335.625 C 217.988281 335.625 215.1875 333.105469 215.1875 328.0625 C 215.1875 325.179688 216.25 321.730469 218.367188 317.707031 C 220.484375 313.683594 223.667969 309.453125 227.90625 305.007812 C 230.9375 302.007812 234.644531 298.792969 239.042969 295.375 C 243.433594 291.953125 248.242188 288.679688 253.46875 285.558594 C 258.691406 282.4375 264.03125 279.882812 269.484375 277.902344 C 274.9375 275.921875 280.234375 274.929688 285.386719 274.929688 C 287.65625 274.929688 289.25 275.203125 290.15625 275.742188 C 291.066406 276.28125 291.671875 276.855469 291.976562 277.453125 C 292.277344 277.933594 292.316406 278.292969 292.089844 278.535156 C 291.859375 278.777344 291.59375 278.835938 291.292969 278.714844 C 290.6875 278.472656 289.476562 278.355469 287.65625 278.355469 C 282.207031 278.355469 275.730469 280.425781 268.234375 284.566406 C 260.738281 288.710938 253.355469 294.085938 246.085938 300.6875 C 240.933594 305.25 236.691406 309.722656 233.359375 314.105469 C 230.027344 318.488281 227.832031 322.117188 226.773438 325 C 226.46875 325.960938 226.316406 326.800781 226.316406 327.523438 C 226.316406 329.207031 227.148438 330.042969 228.816406 330.042969 C 229.875 330.042969 231.316406 329.65625 233.132812 328.871094 C 234.953125 328.09375 237.296875 326.742188 240.175781 324.820312 C 244.71875 321.699219 249.226562 318.039062 253.695312 313.832031 C 258.160156 309.632812 262.589844 305.339844 266.984375 300.957031 C 271.375 296.574219 275.652344 292.523438 279.820312 288.800781 C 283.984375 285.078125 287.960938 282.257812 291.746094 280.335938 C 296.59375 277.8125 299.960938 276.371094 301.855469 276.011719 C 303.75 275.652344 305.300781 275.414062 306.515625 275.292969 C 305.753906 276.011719 304.089844 277.695312 301.515625 280.335938 C 298.9375 282.976562 296.214844 285.769531 293.339844 288.710938 C 290.460938 291.652344 288.113281 294.085938 286.296875 296.003906 C 283.570312 299.125 280.652344 302.488281 277.550781 306.089844 C 274.441406 309.691406 271.640625 313.085938 269.144531 316.265625 C 266.644531 319.449219 264.941406 322.058594 264.03125 324.101562 C 263.273438 326.144531 262.894531 327.644531 262.894531 328.601562 C 262.894531 330.523438 263.878906 331.484375 265.847656 331.484375 C 267.210938 331.484375 268.835938 331.035156 270.734375 330.132812 C 272.625 329.234375 274.558594 328.183594 276.527344 326.980469 C 279.101562 325.300781 281.523438 323.53125 283.796875 321.667969 C 286.066406 319.808594 288.414062 317.738281 290.839844 315.453125 C 291.441406 315.453125 291.746094 315.816406 291.746094 316.535156 C 291.746094 317.617188 291.441406 318.457031 290.839844 319.058594 C 288.867188 320.859375 286.484375 322.839844 283.683594 325 C 280.878906 327.160156 278.117188 329.085938 275.390625 330.761719 C 273.421875 332.085938 271.148438 333.226562 268.574219 334.1875 C 266 335.148438 263.5 335.625 261.078125 335.625 C 257.59375 335.625 255.171875 334.96875 253.808594 333.644531 C 252.445312 332.324219 251.761719 330.644531 251.761719 328.601562 C 251.761719 326.203125 252.445312 323.589844 253.808594 320.769531 C 255.171875 317.949219 256.683594 315.273438 258.351562 312.753906 C 256.382812 314.675781 253.882812 316.988281 250.855469 319.6875 C 247.820312 322.386719 245.097656 324.640625 242.675781 326.441406 C 239.34375 328.84375 236.160156 330.972656 233.132812 332.835938 C 230.101562 334.699219 226.921875 335.625 223.59375 335.625 "/>
<path fill-rule="nonzero" fill="#3b2f20" fill-opacity="1" d="M 297.878906 333.644531 C 303.632812 333.285156 309.726562 330.882812 316.167969 326.441406 C 322.605469 322 329.378906 316.597656 336.5 310.230469 C 341.800781 305.550781 346.230469 301.019531 349.792969 296.632812 C 353.347656 292.253906 355.660156 288.679688 356.71875 285.917969 C 356.871094 285.558594 356.949219 285.078125 356.949219 284.476562 C 356.949219 283.515625 356.640625 282.648438 356.039062 281.867188 C 355.429688 281.085938 354.449219 280.695312 353.085938 280.695312 C 351.871094 280.695312 350.246094 281.117188 348.199219 281.957031 C 346.15625 282.796875 343.617188 284.238281 340.589844 286.277344 C 338.011719 287.960938 334.570312 290.453125 330.253906 293.753906 C 325.9375 297.054688 321.582031 300.628906 317.191406 304.46875 C 315.828125 305.671875 313.894531 307.351562 311.398438 309.511719 C 308.898438 311.671875 306.320312 314.074219 303.671875 316.714844 C 301.019531 319.359375 298.789062 321.9375 296.972656 324.460938 C 295.152344 326.980469 294.246094 329.207031 294.246094 331.125 C 294.246094 331.964844 294.621094 332.59375 295.378906 333.015625 C 296.136719 333.4375 296.972656 333.644531 297.878906 333.644531 M 295.835938 336.167969 C 292.347656 336.167969 289.894531 335.445312 288.453125 334.007812 C 287.015625 332.5625 286.292969 330.761719 286.292969 328.601562 C 286.292969 326.441406 286.824219 324.132812 287.882812 321.667969 C 288.945312 319.210938 290.082031 316.957031 291.292969 314.914062 C 294.015625 311.3125 297.007812 307.683594 300.265625 304.019531 C 303.519531 300.355469 307.042969 296.542969 310.828125 292.582031 C 314.917969 288.257812 319.609375 283.578125 324.914062 278.535156 C 330.214844 273.492188 335.933594 268.539062 342.066406 263.675781 C 348.199219 258.8125 354.675781 254.519531 361.492188 250.796875 C 368.304688 247.078125 375.273438 244.375 382.390625 242.691406 C 383.757812 242.332031 385.382812 242.035156 387.277344 241.792969 C 389.167969 241.554688 391.101562 241.429688 393.070312 241.429688 C 394.734375 241.429688 396.363281 241.519531 397.957031 241.703125 C 399.546875 241.882812 401.019531 242.214844 402.382812 242.691406 C 403.59375 243.175781 404.804688 243.804688 406.019531 244.582031 C 407.230469 245.367188 407.984375 246.472656 408.292969 247.914062 C 406.773438 246.835938 404.957031 246.023438 402.839844 245.484375 C 400.714844 244.945312 398.140625 244.671875 395.113281 244.671875 C 389.054688 244.671875 383.449219 245.726562 378.304688 247.824219 C 373.152344 249.925781 368.265625 252.6875 363.648438 256.109375 C 359.027344 259.53125 354.597656 263.253906 350.359375 267.277344 C 346.117188 271.300781 341.875 275.171875 337.636719 278.894531 C 331.578125 284.296875 325.898438 289.699219 320.597656 295.101562 C 315.292969 300.507812 311.054688 305.429688 307.875 309.871094 C 310.902344 306.871094 314.3125 303.6875 318.097656 300.328125 C 321.882812 296.964844 325.597656 293.8125 329.230469 290.871094 C 332.863281 287.929688 335.894531 285.621094 338.316406 283.9375 C 341.648438 281.535156 344.90625 279.585938 348.085938 278.082031 C 351.265625 276.582031 354.523438 275.714844 357.855469 275.472656 C 363.308594 275.230469 366.035156 277.753906 366.035156 283.035156 C 366.035156 285.800781 365.011719 289.191406 362.96875 293.210938 C 360.921875 297.238281 357.703125 301.527344 353.3125 306.089844 C 350.433594 309.09375 346.761719 312.304688 342.292969 315.726562 C 337.824219 319.148438 332.980469 322.421875 327.753906 325.539062 C 322.527344 328.664062 317.191406 331.214844 311.738281 333.195312 C 306.285156 335.175781 300.984375 336.167969 295.835938 336.167969 "/>
<path fill-rule="nonzero" fill="#3b2f20" fill-opacity="1" d="M 418.058594 267.726562 C 415.027344 267.726562 413.515625 266.765625 413.515625 264.84375 C 413.515625 264.246094 413.742188 263.585938 414.195312 262.863281 C 414.953125 261.425781 416.277344 260.132812 418.171875 258.992188 C 420.066406 257.851562 421.921875 257.28125 423.738281 257.28125 C 426.613281 257.28125 428.054688 258.242188 428.054688 260.164062 C 428.054688 261.964844 426.992188 263.648438 424.875 265.207031 C 422.75 266.765625 420.480469 267.609375 418.058594 267.726562 M 368.761719 335.808594 C 364.671875 335.808594 361.753906 334.9375 360.015625 333.195312 C 358.273438 331.457031 357.402344 329.265625 357.402344 326.621094 C 357.402344 323.140625 358.726562 319.390625 361.375 315.363281 C 364.023438 311.34375 367.320312 307.320312 371.257812 303.296875 C 375.195312 299.277344 379.210938 295.492188 383.300781 291.953125 C 387.390625 288.410156 390.945312 285.496094 393.976562 283.214844 C 396.851562 280.9375 399.804688 279.253906 402.835938 278.171875 C 405.867188 277.09375 409.574219 276.132812 413.96875 275.292969 C 410.636719 278.292969 406.09375 282.558594 400.339844 288.078125 C 394.582031 293.601562 388.902344 299.488281 383.300781 305.730469 C 382.84375 306.210938 381.785156 307.410156 380.117188 309.332031 C 378.449219 311.253906 376.597656 313.472656 374.554688 315.996094 C 372.507812 318.515625 370.765625 320.980469 369.328125 323.378906 C 367.886719 325.78125 367.171875 327.703125 367.171875 329.144531 C 367.171875 331.425781 368.683594 332.566406 371.710938 332.566406 C 373.984375 332.566406 376.445312 331.90625 379.097656 330.585938 C 381.746094 329.265625 384.433594 327.644531 387.164062 325.722656 C 389.886719 323.800781 392.347656 321.910156 394.546875 320.046875 C 396.738281 318.1875 398.441406 316.65625 399.65625 315.453125 C 400.261719 315.453125 400.566406 315.816406 400.566406 316.535156 C 400.566406 317.617188 400.261719 318.457031 399.65625 319.058594 C 393.898438 324.34375 388.714844 328.453125 384.09375 331.394531 C 379.472656 334.339844 374.359375 335.808594 368.761719 335.808594 "/>
<path fill-rule="nonzero" fill="#3b2f20" fill-opacity="1" d="M 404.65625 335.445312 C 401.019531 335.445312 398.445312 334.816406 396.929688 333.554688 C 395.417969 332.292969 394.660156 330.703125 394.660156 328.78125 C 394.660156 326.742188 395.265625 324.523438 396.476562 322.117188 C 397.691406 319.71875 399.128906 317.320312 400.792969 314.914062 C 406.394531 307.234375 413.402344 299.1875 421.808594 290.78125 C 430.214844 282.378906 438.808594 274.453125 447.59375 267.007812 L 429.871094 267.007812 L 432.371094 264.484375 L 450.773438 264.484375 L 456.226562 260.164062 C 459.554688 257.523438 463.191406 255 467.132812 252.597656 C 471.066406 250.199219 474.929688 248.214844 478.71875 246.65625 C 482.5 245.09375 485.835938 244.3125 488.714844 244.3125 C 486.742188 245.515625 483.714844 247.707031 479.625 250.886719 C 475.535156 254.070312 471.75 257.164062 468.265625 260.164062 L 463.269531 264.484375 L 520.746094 264.484375 L 518.246094 267.007812 L 460.316406 267.007812 C 455.617188 271.210938 450.734375 275.804688 445.660156 280.785156 C 440.585938 285.769531 435.664062 290.722656 430.894531 295.644531 C 426.125 300.570312 421.84375 305.160156 418.058594 309.421875 C 414.269531 313.683594 411.472656 317.199219 409.652344 319.957031 C 408.589844 321.398438 407.722656 322.902344 407.039062 324.460938 C 406.359375 326.023438 406.015625 327.460938 406.015625 328.78125 C 406.015625 331.066406 407.304688 332.203125 409.878906 332.203125 C 411.542969 332.203125 414.195312 331.484375 417.832031 330.042969 C 421.617188 328.363281 425.175781 326.171875 428.511719 323.46875 C 431.839844 320.765625 435.398438 317.738281 439.1875 314.375 C 439.640625 314.375 439.867188 314.554688 439.867188 314.914062 C 439.867188 315.394531 439.601562 316.054688 439.074219 316.894531 C 438.539062 317.738281 438.125 318.398438 437.824219 318.875 C 431.765625 324.402344 426.085938 328.542969 420.785156 331.304688 C 415.484375 334.066406 410.109375 335.445312 404.65625 335.445312 "/>
<path fill-rule="nonzero" fill="#3b2f20" fill-opacity="1" d="M 441.914062 335.625 C 436.3125 335.625 433.507812 333.105469 433.507812 328.0625 C 433.507812 325.179688 434.570312 321.730469 436.6875 317.707031 C 438.808594 313.683594 441.988281 309.453125 446.230469 305.007812 C 449.257812 302.007812 452.96875 298.792969 457.359375 295.375 C 461.753906 291.953125 466.5625 288.679688 471.789062 285.558594 C 477.011719 282.4375 482.351562 279.882812 487.804688 277.902344 C 493.257812 275.921875 498.558594 274.929688 503.707031 274.929688 C 505.980469 274.929688 507.570312 275.203125 508.476562 275.742188 C 509.386719 276.28125 509.992188 276.855469 510.296875 277.453125 C 510.597656 277.933594 510.636719 278.292969 510.410156 278.535156 C 510.183594 278.777344 509.914062 278.835938 509.613281 278.714844 C 509.007812 278.472656 507.796875 278.355469 505.980469 278.355469 C 500.527344 278.355469 494.054688 280.425781 486.554688 284.566406 C 479.058594 288.710938 471.675781 294.085938 464.40625 300.6875 C 459.253906 305.25 455.011719 309.722656 451.683594 314.105469 C 448.347656 318.488281 446.152344 322.117188 445.09375 325 C 444.789062 325.960938 444.640625 326.800781 444.640625 327.523438 C 444.640625 329.207031 445.472656 330.042969 447.140625 330.042969 C 448.195312 330.042969 449.636719 329.65625 451.453125 328.871094 C 453.273438 328.09375 455.617188 326.742188 458.496094 324.820312 C 463.042969 321.699219 467.546875 318.039062 472.015625 313.832031 C 476.480469 309.632812 480.910156 305.339844 485.304688 300.957031 C 489.695312 296.574219 493.972656 292.523438 498.140625 288.800781 C 502.304688 285.078125 506.28125 282.257812 510.066406 280.335938 C 514.914062 277.8125 518.28125 276.371094 520.179688 276.011719 C 522.070312 275.652344 523.621094 275.414062 524.835938 275.292969 C 524.074219 276.011719 522.410156 277.695312 519.839844 280.335938 C 517.261719 282.976562 514.535156 285.769531 511.660156 288.710938 C 508.78125 291.652344 506.433594 294.085938 504.617188 296.003906 C 501.890625 299.125 498.972656 302.488281 495.871094 306.089844 C 492.765625 309.691406 489.960938 313.085938 487.464844 316.265625 C 484.964844 319.449219 483.261719 322.058594 482.351562 324.101562 C 481.59375 326.144531 481.214844 327.644531 481.214844 328.601562 C 481.214844 330.523438 482.199219 331.484375 484.167969 331.484375 C 485.53125 331.484375 487.160156 331.035156 489.054688 330.132812 C 490.945312 329.234375 492.875 328.183594 494.847656 326.980469 C 497.421875 325.300781 499.847656 323.53125 502.117188 321.667969 C 504.390625 319.808594 506.734375 317.738281 509.160156 315.453125 C 509.765625 315.453125 510.066406 315.816406 510.066406 316.535156 C 510.066406 317.617188 509.765625 318.457031 509.160156 319.058594 C 507.191406 320.859375 504.804688 322.839844 502.003906 325 C 499.199219 327.160156 496.4375 329.085938 493.710938 330.761719 C 491.742188 332.085938 489.46875 333.226562 486.894531 334.1875 C 484.320312 335.148438 481.820312 335.625 479.398438 335.625 C 475.914062 335.625 473.492188 334.96875 472.128906 333.644531 C 470.765625 332.324219 470.082031 330.644531 470.082031 328.601562 C 470.082031 326.203125 470.765625 323.589844 472.128906 320.769531 C 473.492188 317.949219 475.003906 315.273438 476.671875 312.753906 C 474.703125 314.675781 472.203125 316.988281 469.175781 319.6875 C 466.144531 322.386719 463.417969 324.640625 460.996094 326.441406 C 457.664062 328.84375 454.484375 330.972656 451.453125 332.835938 C 448.425781 334.699219 445.242188 335.625 441.914062 335.625 "/>
<path fill-rule="nonzero" fill="#3b2f20" fill-opacity="1" d="M 535.738281 335.804688 C 531.949219 335.804688 529.265625 335.027344 527.675781 333.464844 C 526.085938 331.90625 525.289062 329.984375 525.289062 327.703125 C 525.289062 326.261719 525.515625 324.820312 525.96875 323.378906 C 526.878906 319.777344 529.148438 315.996094 532.785156 312.035156 C 536.421875 308.070312 540.738281 304.109375 545.734375 300.148438 C 550.734375 296.183594 555.84375 292.582031 561.070312 289.339844 C 566.292969 286.097656 570.953125 283.398438 575.039062 281.234375 C 573.226562 281.476562 570.875 281.59375 568 281.59375 C 564.664062 281.59375 561.183594 281.445312 557.546875 281.144531 C 553.914062 280.847656 551.414062 280.335938 550.050781 279.613281 C 549.445312 280.457031 547.96875 282.046875 545.621094 284.386719 C 543.269531 286.726562 540.394531 289.519531 536.988281 292.761719 C 533.578125 296.003906 530.058594 299.308594 526.425781 302.667969 C 522.789062 306.03125 519.382812 309.183594 516.199219 312.125 C 513.019531 315.066406 510.441406 317.378906 508.476562 319.058594 C 506.511719 320.859375 503.820312 322.992188 500.410156 325.449219 C 497.003906 327.914062 493.59375 330.105469 490.1875 332.023438 C 486.78125 333.945312 483.941406 334.90625 481.667969 334.90625 C 480.609375 334.90625 479.964844 334.726562 479.738281 334.367188 C 479.511719 334.003906 479.394531 333.765625 479.394531 333.644531 C 481.820312 333.644531 485.417969 332.292969 490.1875 329.59375 C 494.960938 326.890625 501.058594 322.179688 508.476562 315.453125 C 517.410156 307.292969 525.855469 298.496094 533.808594 289.070312 C 541.757812 279.644531 548.914062 269.828125 555.277344 259.621094 L 555.503906 259.621094 C 557.46875 259.621094 558.457031 261.125 558.457031 264.125 C 558.457031 266.886719 557.242188 270.128906 554.824219 273.851562 C 554.214844 274.691406 553.304688 275.832031 552.09375 277.273438 C 555.125 277.753906 558.152344 278.082031 561.183594 278.261719 C 564.210938 278.445312 567.011719 278.535156 569.589844 278.535156 C 571.707031 278.535156 573.679688 278.472656 575.496094 278.351562 C 577.3125 278.234375 578.75 278.054688 579.8125 277.8125 C 581.175781 277.8125 581.894531 278.023438 581.972656 278.445312 C 582.046875 278.867188 581.933594 279.195312 581.632812 279.433594 C 581.023438 279.914062 579.773438 280.996094 577.882812 282.675781 C 575.984375 284.359375 573.867188 286.1875 571.519531 288.167969 C 569.171875 290.152344 567.011719 292.011719 565.046875 293.753906 C 563.074219 295.496094 561.640625 296.785156 560.730469 297.625 C 556.03125 302.070312 551.375 306.929688 546.757812 312.214844 C 542.136719 317.5 538.917969 322.238281 537.101562 326.441406 C 536.492188 327.523438 536.191406 328.542969 536.191406 329.503906 C 536.191406 331.183594 537.175781 332.023438 539.144531 332.023438 C 541.265625 332.023438 543.917969 331.035156 547.097656 329.054688 C 550.277344 327.070312 553.492188 324.761719 556.753906 322.117188 C 560.007812 319.480469 562.621094 317.257812 564.589844 315.453125 C 565.195312 315.453125 565.5 315.816406 565.5 316.535156 C 565.5 317.617188 565.195312 318.457031 564.589844 319.058594 C 557.621094 325.539062 551.980469 329.953125 547.664062 332.292969 C 543.347656 334.636719 539.371094 335.804688 535.738281 335.804688 "/>
<path fill-rule="nonzero" fill="#3b2f20" fill-opacity="1" d="M 568.679688 335.625 C 563.078125 335.625 560.273438 333.105469 560.273438 328.0625 C 560.273438 325.179688 561.335938 321.730469 563.453125 317.707031 C 565.574219 313.683594 568.753906 309.453125 572.996094 305.007812 C 576.023438 302.007812 579.730469 298.792969 584.125 295.375 C 588.519531 291.953125 593.328125 288.679688 598.554688 285.558594 C 603.78125 282.4375 609.117188 279.882812 614.570312 277.902344 C 620.023438 275.921875 625.324219 274.929688 630.472656 274.929688 C 632.746094 274.929688 634.335938 275.203125 635.242188 275.742188 C 636.152344 276.28125 636.757812 276.855469 637.0625 277.453125 C 637.363281 277.933594 637.402344 278.292969 637.175781 278.535156 C 636.949219 278.777344 636.679688 278.835938 636.378906 278.714844 C 635.773438 278.472656 634.5625 278.355469 632.746094 278.355469 C 627.292969 278.355469 620.816406 280.425781 613.320312 284.566406 C 605.824219 288.710938 598.441406 294.085938 591.171875 300.6875 C 586.019531 305.25 581.777344 309.722656 578.449219 314.105469 C 575.113281 318.488281 572.917969 322.117188 571.859375 325 C 571.554688 325.960938 571.40625 326.800781 571.40625 327.523438 C 571.40625 329.207031 572.234375 330.042969 573.90625 330.042969 C 574.960938 330.042969 576.402344 329.65625 578.21875 328.871094 C 580.039062 328.09375 582.382812 326.742188 585.261719 324.820312 C 589.808594 321.699219 594.3125 318.039062 598.78125 313.832031 C 603.246094 309.632812 607.675781 305.339844 612.070312 300.957031 C 616.460938 296.574219 620.738281 292.523438 624.90625 288.800781 C 629.070312 285.078125 633.046875 282.257812 636.835938 280.335938 C 641.679688 277.8125 645.046875 276.371094 646.945312 276.011719 C 648.835938 275.652344 650.386719 275.414062 651.601562 275.292969 C 650.839844 276.011719 649.175781 277.695312 646.601562 280.335938 C 644.027344 282.976562 641.300781 285.769531 638.425781 288.710938 C 635.546875 291.652344 633.199219 294.085938 631.382812 296.003906 C 628.65625 299.125 625.738281 302.488281 622.636719 306.089844 C 619.53125 309.691406 616.726562 313.085938 614.230469 316.265625 C 611.730469 319.449219 610.027344 322.058594 609.117188 324.101562 C 608.359375 326.144531 607.980469 327.644531 607.980469 328.601562 C 607.980469 330.523438 608.964844 331.484375 610.933594 331.484375 C 612.296875 331.484375 613.925781 331.035156 615.820312 330.132812 C 617.710938 329.234375 619.640625 328.183594 621.613281 326.980469 C 624.1875 325.300781 626.609375 323.53125 628.882812 321.667969 C 631.15625 319.808594 633.5 317.738281 635.925781 315.453125 C 636.53125 315.453125 636.835938 315.816406 636.835938 316.535156 C 636.835938 317.617188 636.53125 318.457031 635.925781 319.058594 C 633.957031 320.859375 631.570312 322.839844 628.769531 325 C 625.964844 327.160156 623.203125 329.085938 620.476562 330.761719 C 618.507812 332.085938 616.234375 333.226562 613.660156 334.1875 C 611.085938 335.148438 608.585938 335.625 606.164062 335.625 C 602.679688 335.625 600.257812 334.96875 598.894531 333.644531 C 597.53125 332.324219 596.847656 330.644531 596.847656 328.601562 C 596.847656 326.203125 597.53125 323.589844 598.894531 320.769531 C 600.257812 317.949219 601.769531 315.273438 603.4375 312.753906 C 601.46875 314.675781 598.96875 316.988281 595.941406 319.6875 C 592.910156 322.386719 590.183594 324.640625 587.761719 326.441406 C 584.429688 328.84375 581.25 330.972656 578.21875 332.835938 C 575.1875 334.699219 572.007812 335.625 568.679688 335.625 "/>
<path fill-rule="nonzero" fill="#3b2f20" fill-opacity="1" d="M 167.734375 369.492188 C 173.105469 369.492188 176.546875 366.78125 176.546875 362.953125 C 176.546875 359.125 173.105469 356.414062 167.734375 356.414062 L 161.710938 356.414062 L 161.710938 369.492188 Z M 160.328125 355.425781 L 167.839844 355.425781 C 173.863281 355.425781 177.933594 358.5625 177.933594 362.953125 C 177.933594 367.339844 173.863281 370.480469 167.839844 370.480469 L 160.328125 370.480469 Z M 160.328125 355.425781 "/>
<path fill-rule="nonzero" fill="#3b2f20" fill-opacity="1" d="M 182.105469 364.285156 L 192.957031 364.285156 C 192.769531 361.855469 190.542969 360.113281 187.53125 360.113281 C 184.519531 360.113281 182.324219 361.835938 182.105469 364.285156 M 194.261719 365.125 L 182.078125 365.125 C 182.214844 367.792969 184.683594 369.601562 188.074219 369.601562 C 189.867188 369.601562 191.519531 369.082031 192.605469 368.03125 L 193.390625 368.738281 C 192.144531 369.945312 190.191406 370.570312 188.046875 370.570312 C 183.761719 370.570312 180.75 368.203125 180.75 364.867188 C 180.75 361.535156 183.652344 359.167969 187.53125 359.167969 C 191.414062 359.167969 194.285156 361.488281 194.285156 364.824219 C 194.285156 364.910156 194.261719 365.019531 194.261719 365.125 "/>
<path fill-rule="nonzero" fill="#3b2f20" fill-opacity="1" d="M 196.402344 369.125 L 197.027344 368.265625 C 198.109375 368.996094 200.035156 369.621094 202.125 369.621094 C 205.109375 369.621094 206.300781 368.78125 206.300781 367.511719 C 206.300781 364.242188 196.917969 366.652344 196.917969 362.242188 C 196.917969 360.542969 198.707031 359.167969 202.289062 359.167969 C 204.078125 359.167969 206.03125 359.597656 207.144531 360.265625 L 206.519531 361.125 C 205.328125 360.4375 203.78125 360.113281 202.261719 360.113281 C 199.492188 360.113281 198.273438 361.015625 198.273438 362.222656 C 198.273438 365.597656 207.660156 363.210938 207.660156 367.492188 C 207.660156 369.320312 205.679688 370.566406 202.070312 370.566406 C 199.738281 370.566406 197.515625 369.945312 196.402344 369.125 "/>
<path fill-rule="nonzero" fill="#3b2f20" fill-opacity="1" d="M 209.910156 364.867188 C 209.910156 361.511719 212.921875 359.167969 217.070312 359.167969 C 219.324219 359.167969 221.277344 359.855469 222.441406 361.230469 L 221.4375 361.8125 C 220.410156 360.671875 218.835938 360.136719 217.070312 360.136719 C 213.734375 360.136719 211.292969 362.027344 211.292969 364.867188 C 211.292969 367.707031 213.734375 369.601562 217.070312 369.601562 C 218.835938 369.601562 220.410156 369.0625 221.4375 367.921875 L 222.441406 368.503906 C 221.277344 369.859375 219.324219 370.566406 217.070312 370.566406 C 212.921875 370.566406 209.910156 368.203125 209.910156 364.867188 "/>
<path fill-rule="nonzero" fill="#3b2f20" fill-opacity="1" d="M 235.382812 367.167969 L 235.382812 365.0625 L 230.550781 365.0625 C 227.621094 365.0625 226.589844 366.027344 226.589844 367.320312 C 226.589844 368.78125 228.027344 369.6875 230.523438 369.6875 C 232.914062 369.6875 234.566406 368.78125 235.382812 367.167969 M 236.738281 363.363281 L 236.738281 370.480469 L 235.433594 370.480469 L 235.433594 368.480469 C 234.539062 369.773438 232.804688 370.566406 230.335938 370.566406 C 227.160156 370.566406 225.234375 369.277344 225.234375 367.363281 C 225.234375 365.664062 226.589844 364.222656 230.523438 364.222656 L 235.382812 364.222656 L 235.382812 363.320312 C 235.382812 361.230469 233.945312 360.113281 231.175781 360.113281 C 229.222656 360.113281 227.457031 360.695312 226.292969 361.53125 L 225.613281 360.757812 C 227.027344 359.769531 229.085938 359.167969 231.285156 359.167969 C 234.785156 359.167969 236.738281 360.585938 236.738281 363.363281 "/>
<path fill-rule="nonzero" fill="#3b2f20" fill-opacity="1" d="M 254.992188 363.921875 L 254.992188 370.480469 L 253.636719 370.480469 L 253.636719 364.007812 C 253.636719 361.46875 251.925781 360.136719 249.050781 360.136719 C 245.714844 360.136719 243.679688 361.835938 243.679688 364.503906 L 243.679688 370.480469 L 242.324219 370.480469 L 242.324219 359.253906 L 243.625 359.253906 L 243.625 361.683594 C 244.574219 360.113281 246.554688 359.167969 249.242188 359.167969 C 252.6875 359.167969 254.992188 360.78125 254.992188 363.921875 "/>
<path fill-rule="nonzero" fill="#3b2f20" fill-opacity="1" d="M 258.488281 369.125 L 259.113281 368.265625 C 260.199219 368.996094 262.125 369.621094 264.214844 369.621094 C 267.195312 369.621094 268.390625 368.78125 268.390625 367.511719 C 268.390625 364.242188 259.003906 366.652344 259.003906 362.242188 C 259.003906 360.542969 260.796875 359.167969 264.375 359.167969 C 266.167969 359.167969 268.121094 359.597656 269.230469 360.265625 L 268.609375 361.125 C 267.414062 360.4375 265.867188 360.113281 264.347656 360.113281 C 261.582031 360.113281 260.359375 361.015625 260.359375 362.222656 C 260.359375 365.597656 269.75 363.210938 269.75 367.492188 C 269.75 369.320312 267.765625 370.566406 264.160156 370.566406 C 261.828125 370.566406 259.601562 369.945312 258.488281 369.125 "/>
<path fill-rule="nonzero" fill="#3b2f20" fill-opacity="1" d="M 282.414062 367.167969 L 282.414062 365.0625 L 277.585938 365.0625 C 274.65625 365.0625 273.625 366.027344 273.625 367.320312 C 273.625 368.78125 275.0625 369.6875 277.558594 369.6875 C 279.945312 369.6875 281.601562 368.78125 282.414062 367.167969 M 283.769531 363.363281 L 283.769531 370.480469 L 282.46875 370.480469 L 282.46875 368.480469 C 281.574219 369.773438 279.835938 370.566406 277.367188 370.566406 C 274.195312 370.566406 272.269531 369.277344 272.269531 367.363281 C 272.269531 365.664062 273.625 364.222656 277.558594 364.222656 L 282.414062 364.222656 L 282.414062 363.320312 C 282.414062 361.230469 280.976562 360.113281 278.210938 360.113281 C 276.257812 360.113281 274.492188 360.695312 273.324219 361.53125 L 272.648438 360.757812 C 274.058594 359.769531 276.121094 359.167969 278.316406 359.167969 C 281.816406 359.167969 283.769531 360.585938 283.769531 363.363281 "/>
<path fill-rule="nonzero" fill="#3b2f20" fill-opacity="1" d="M 356.773438 369.492188 C 362.144531 369.492188 365.589844 366.78125 365.589844 362.953125 C 365.589844 359.125 362.144531 356.414062 356.773438 356.414062 L 350.75 356.414062 L 350.75 369.492188 Z M 349.367188 355.425781 L 356.878906 355.425781 C 362.90625 355.425781 366.972656 358.5625 366.972656 362.953125 C 366.972656 367.339844 362.90625 370.480469 356.878906 370.480469 L 349.367188 370.480469 Z M 349.367188 355.425781 "/>
<path fill-rule="nonzero" fill="#3b2f20" fill-opacity="1" d="M 371.339844 359.253906 L 372.695312 359.253906 L 372.695312 370.480469 L 371.339844 370.480469 Z M 370.902344 355.660156 C 370.902344 355.1875 371.390625 354.777344 372.015625 354.777344 C 372.640625 354.777344 373.128906 355.164062 373.128906 355.640625 C 373.128906 356.132812 372.640625 356.519531 372.015625 356.519531 C 371.390625 356.519531 370.902344 356.132812 370.902344 355.660156 "/>
<path fill-rule="nonzero" fill="#3b2f20" fill-opacity="1" d="M 376.328125 369.125 L 376.953125 368.265625 C 378.035156 368.996094 379.964844 369.621094 382.050781 369.621094 C 385.035156 369.621094 386.230469 368.78125 386.230469 367.511719 C 386.230469 364.242188 376.84375 366.652344 376.84375 362.242188 C 376.84375 360.542969 378.632812 359.167969 382.214844 359.167969 C 384.003906 359.167969 385.957031 359.597656 387.070312 360.265625 L 386.445312 361.125 C 385.253906 360.4375 383.707031 360.113281 382.1875 360.113281 C 379.421875 360.113281 378.199219 361.015625 378.199219 362.222656 C 378.199219 365.597656 387.585938 363.210938 387.585938 367.492188 C 387.585938 369.320312 385.605469 370.566406 381.996094 370.566406 C 379.664062 370.566406 377.441406 369.945312 376.328125 369.125 "/>
<path fill-rule="nonzero" fill="#3b2f20" fill-opacity="1" d="M 392.984375 357.617188 L 392.984375 359.253906 L 397.511719 359.253906 L 397.511719 360.175781 L 393.011719 360.175781 L 393.011719 370.480469 L 391.652344 370.480469 L 391.652344 360.175781 L 389.050781 360.175781 L 389.050781 359.253906 L 391.652344 359.253906 L 391.652344 357.53125 C 391.652344 355.660156 393.066406 354.433594 395.585938 354.433594 C 396.617188 354.433594 397.703125 354.671875 398.382812 355.167969 L 397.839844 355.984375 C 397.269531 355.574219 396.484375 355.359375 395.640625 355.359375 C 393.878906 355.359375 392.984375 356.132812 392.984375 357.617188 "/>
<path fill-rule="nonzero" fill="#3b2f20" fill-opacity="1" d="M 409.148438 359.167969 L 409.148438 360.222656 C 409.039062 360.222656 408.933594 360.199219 408.824219 360.199219 C 405.679688 360.199219 403.804688 361.855469 403.804688 364.632812 L 403.804688 370.480469 L 402.449219 370.480469 L 402.449219 359.253906 L 403.75 359.253906 L 403.75 361.703125 C 404.621094 360.070312 406.492188 359.167969 409.148438 359.167969 "/>
<path fill-rule="nonzero" fill="#3b2f20" fill-opacity="1" d="M 425.535156 359.253906 L 425.535156 370.480469 L 424.230469 370.480469 L 424.230469 368.074219 C 423.308594 369.644531 421.382812 370.566406 418.886719 370.566406 C 415.28125 370.566406 412.972656 368.953125 412.972656 365.8125 L 412.972656 359.253906 L 414.328125 359.253906 L 414.328125 365.726562 C 414.328125 368.265625 416.039062 369.601562 418.996094 369.601562 C 422.199219 369.601562 424.175781 367.902344 424.175781 365.234375 L 424.175781 359.253906 Z M 425.535156 359.253906 "/>
<path fill-rule="nonzero" fill="#3b2f20" fill-opacity="1" d="M 438.308594 369.773438 C 437.601562 370.308594 436.460938 370.566406 435.40625 370.566406 C 432.910156 370.566406 431.550781 369.40625 431.550781 367.511719 L 431.550781 360.179688 L 428.949219 360.179688 L 428.949219 359.253906 L 431.550781 359.253906 L 431.550781 356.800781 L 432.910156 356.800781 L 432.910156 359.253906 L 437.414062 359.253906 L 437.414062 360.179688 L 432.910156 360.179688 L 432.910156 367.40625 C 432.910156 368.847656 433.804688 369.640625 435.542969 369.640625 C 436.382812 369.640625 437.167969 369.429688 437.738281 369.019531 Z M 438.308594 369.773438 "/>
<path fill-rule="nonzero" fill="#3b2f20" fill-opacity="1" d="M 450.949219 367.167969 L 450.949219 365.0625 L 446.121094 365.0625 C 443.191406 365.0625 442.160156 366.027344 442.160156 367.320312 C 442.160156 368.78125 443.597656 369.6875 446.09375 369.6875 C 448.480469 369.6875 450.132812 368.78125 450.949219 367.167969 M 452.304688 363.363281 L 452.304688 370.480469 L 451.003906 370.480469 L 451.003906 368.480469 C 450.109375 369.773438 448.371094 370.566406 445.902344 370.566406 C 442.726562 370.566406 440.800781 369.277344 440.800781 367.363281 C 440.800781 365.664062 442.160156 364.222656 446.09375 364.222656 L 450.949219 364.222656 L 450.949219 363.320312 C 450.949219 361.230469 449.511719 360.113281 446.746094 360.113281 C 444.792969 360.113281 443.027344 360.695312 441.859375 361.53125 L 441.183594 360.757812 C 442.59375 359.769531 444.65625 359.167969 446.851562 359.167969 C 450.351562 359.167969 452.304688 360.585938 452.304688 363.363281 "/>
<path fill-rule="nonzero" fill="#3b2f20" fill-opacity="1" d="M 534.058594 355.425781 L 534.058594 370.480469 L 532.675781 370.480469 L 532.675781 363.316406 L 519.976562 363.316406 L 519.976562 370.480469 L 518.59375 370.480469 L 518.59375 355.425781 L 519.976562 355.425781 L 519.976562 362.351562 L 532.675781 362.351562 L 532.675781 355.425781 Z M 534.058594 355.425781 "/>
<path fill-rule="nonzero" fill="#3b2f20" fill-opacity="1" d="M 549.109375 367.167969 L 549.109375 365.0625 L 544.28125 365.0625 C 541.351562 365.0625 540.320312 366.027344 540.320312 367.320312 C 540.320312 368.78125 541.757812 369.6875 544.253906 369.6875 C 546.640625 369.6875 548.296875 368.78125 549.109375 367.167969 M 550.46875 363.363281 L 550.46875 370.480469 L 549.164062 370.480469 L 549.164062 368.480469 C 548.269531 369.773438 546.53125 370.566406 544.0625 370.566406 C 540.890625 370.566406 538.964844 369.277344 538.964844 367.363281 C 538.964844 365.664062 540.320312 364.222656 544.253906 364.222656 L 549.109375 364.222656 L 549.109375 363.320312 C 549.109375 361.230469 547.671875 360.113281 544.90625 360.113281 C 542.953125 360.113281 541.1875 360.695312 540.023438 361.53125 L 539.34375 360.757812 C 540.753906 359.769531 542.816406 359.167969 545.015625 359.167969 C 548.511719 359.167969 550.46875 360.585938 550.46875 363.363281 "/>
<path fill-rule="nonzero" fill="#3b2f20" fill-opacity="1" d="M 568.804688 364.867188 C 568.804688 362.050781 566.335938 360.136719 563.078125 360.136719 C 559.824219 360.136719 557.382812 362.050781 557.382812 364.867188 C 557.382812 367.683594 559.824219 369.601562 563.078125 369.601562 C 566.335938 369.601562 568.804688 367.683594 568.804688 364.867188 M 570.160156 364.867188 C 570.160156 368.222656 567.148438 370.566406 563.160156 370.566406 C 560.609375 370.566406 558.46875 369.558594 557.355469 367.835938 L 557.355469 370.480469 L 556.054688 370.480469 L 556.054688 354.519531 L 557.410156 354.519531 L 557.410156 361.8125 C 558.546875 360.136719 560.664062 359.167969 563.160156 359.167969 C 567.148438 359.167969 570.160156 361.488281 570.160156 364.867188 "/>
<path fill-rule="nonzero" fill="#3b2f20" fill-opacity="1" d="M 574.363281 359.253906 L 575.71875 359.253906 L 575.71875 370.480469 L 574.363281 370.480469 Z M 573.929688 355.660156 C 573.929688 355.1875 574.417969 354.777344 575.039062 354.777344 C 575.664062 354.777344 576.152344 355.164062 576.152344 355.640625 C 576.152344 356.132812 575.664062 356.519531 575.039062 356.519531 C 574.417969 356.519531 573.929688 356.132812 573.929688 355.660156 "/>
<path fill-rule="nonzero" fill="#3b2f20" fill-opacity="1" d="M 588.46875 369.773438 C 587.761719 370.308594 586.621094 370.566406 585.5625 370.566406 C 583.066406 370.566406 581.710938 369.40625 581.710938 367.511719 L 581.710938 360.179688 L 579.109375 360.179688 L 579.109375 359.253906 L 581.710938 359.253906 L 581.710938 356.800781 L 583.066406 356.800781 L 583.066406 359.253906 L 587.570312 359.253906 L 587.570312 360.179688 L 583.066406 360.179688 L 583.066406 367.40625 C 583.066406 368.847656 583.964844 369.640625 585.699219 369.640625 C 586.539062 369.640625 587.328125 369.429688 587.898438 369.019531 Z M 588.46875 369.773438 "/>
<path fill-rule="nonzero" fill="#3b2f20" fill-opacity="1" d="M 601.109375 367.167969 L 601.109375 365.0625 L 596.277344 365.0625 C 593.351562 365.0625 592.316406 366.027344 592.316406 367.320312 C 592.316406 368.78125 593.753906 369.6875 596.25 369.6875 C 598.640625 369.6875 600.292969 368.78125 601.109375 367.167969 M 602.464844 363.363281 L 602.464844 370.480469 L 601.164062 370.480469 L 601.164062 368.480469 C 600.269531 369.773438 598.53125 370.566406 596.0625 370.566406 C 592.886719 370.566406 590.960938 369.277344 590.960938 367.363281 C 590.960938 365.664062 592.316406 364.222656 596.25 364.222656 L 601.109375 364.222656 L 601.109375 363.320312 C 601.109375 361.230469 599.671875 360.113281 596.902344 360.113281 C 594.949219 360.113281 593.1875 360.695312 592.019531 361.53125 L 591.339844 360.757812 C 592.753906 359.769531 594.8125 359.167969 597.011719 359.167969 C 600.511719 359.167969 602.464844 360.585938 602.464844 363.363281 "/>
<path fill-rule="nonzero" fill="#3b2f20" fill-opacity="1" d="M 187.445312 336.167969 C 184.71875 336.167969 182.746094 335.628906 181.535156 334.546875 C 180.324219 333.464844 179.71875 332.089844 179.71875 330.40625 C 179.71875 328.964844 180.175781 326.925781 181.082031 324.28125 C 183.050781 319.960938 185.929688 315.546875 189.714844 311.042969 C 193.5 306.542969 197.628906 302.21875 202.097656 298.078125 C 206.5625 293.933594 210.84375 290.152344 214.933594 286.730469 C 219.023438 283.308594 222.277344 280.515625 224.703125 278.355469 C 222.429688 278.355469 219.96875 278.835938 217.316406 279.796875 C 214.667969 280.757812 211.980469 281.898438 209.253906 283.21875 C 202.738281 286.820312 196.191406 291.082031 189.601562 296.003906 C 183.015625 300.929688 176.878906 305.972656 171.199219 311.132812 C 165.519531 316.296875 160.710938 321.039062 156.773438 325.363281 C 152.835938 329.683594 150.339844 333.046875 149.277344 335.449219 C 146.855469 335.449219 145.640625 334.25 145.640625 331.847656 C 145.640625 329.804688 146.402344 327.253906 147.914062 324.191406 C 149.429688 321.128906 151.320312 318.039062 153.59375 314.917969 C 158.742188 308.074219 165.066406 300.660156 172.5625 292.671875 C 180.058594 284.691406 187.820312 277.214844 195.851562 270.25 C 202.96875 264.007812 210.691406 258.363281 219.023438 253.320312 C 227.351562 248.277344 236.0625 244.738281 245.148438 242.695312 C 246.511719 242.335938 248.101562 242.035156 249.921875 241.792969 C 251.738281 241.554688 253.628906 241.433594 255.601562 241.433594 C 259.234375 241.433594 262.335938 241.855469 264.914062 242.695312 C 266.125 243.175781 267.335938 243.804688 268.550781 244.585938 C 269.757812 245.367188 270.59375 246.476562 271.046875 247.917969 C 269.378906 246.835938 267.488281 246.027344 265.367188 245.484375 C 263.246094 244.945312 260.671875 244.675781 257.644531 244.675781 C 251.738281 244.675781 245.71875 246.027344 239.582031 248.730469 C 233.449219 251.429688 227.617188 254.703125 222.089844 258.542969 C 216.558594 262.386719 211.714844 266.199219 207.550781 269.980469 C 203.382812 273.761719 200.164062 276.734375 197.894531 278.894531 C 191.988281 284.660156 186.796875 290.035156 182.332031 295.015625 C 177.863281 300 174.113281 304.230469 171.085938 307.710938 C 177.140625 302.429688 183.769531 297.117188 190.964844 291.773438 C 198.15625 286.429688 204.785156 282.199219 210.84375 279.074219 C 212.8125 277.996094 214.855469 277.09375 216.976562 276.375 C 219.097656 275.652344 221.292969 275.292969 223.566406 275.292969 C 227.65625 275.292969 229.699219 276.554688 229.699219 279.074219 C 229.699219 280.996094 228.257812 283.28125 225.382812 285.917969 C 220.078125 290.722656 214.707031 296.035156 209.253906 301.859375 C 203.800781 307.683594 199.179688 313.476562 195.394531 319.238281 C 194.789062 320.082031 193.765625 321.734375 192.328125 324.191406 C 190.886719 326.65625 190.171875 328.726562 190.171875 330.40625 C 190.171875 331.847656 191 332.566406 192.667969 332.566406 C 196.152344 332.566406 200.394531 330.796875 205.390625 327.253906 C 210.390625 323.714844 215.234375 319.777344 219.929688 315.457031 C 220.535156 315.457031 220.839844 315.816406 220.839844 316.539062 C 220.839844 317.617188 220.535156 318.460938 219.929688 319.058594 C 217.808594 320.859375 215.121094 323.109375 211.867188 325.8125 C 208.609375 328.515625 204.9375 330.917969 200.847656 333.015625 C 196.757812 335.117188 192.289062 336.167969 187.445312 336.167969 "/>
<path fill-rule="nonzero" fill="#3b2f20" fill-opacity="1" d="M 260.574219 244.773438 C 266.703125 244.757812 271.234375 251.070312 270.535156 256.894531 C 269.789062 263.132812 264.375 267.972656 258.566406 269.640625 C 251.21875 271.75 243.40625 269.832031 236.570312 266.894531 C 229.4375 263.828125 222.71875 259.859375 215.65625 256.628906 C 189.148438 244.492188 159.328125 237.621094 130.382812 244.15625 C 115.582031 247.496094 101.558594 254.277344 90.363281 264.589844 C 88.847656 265.984375 91.113281 268.238281 92.625 266.847656 C 114.5 246.703125 146.125 241.574219 174.652344 246.683594 C 190.390625 249.5 205.527344 255.082031 219.832031 262.144531 C 232.824219 268.554688 248.53125 278.640625 263.277344 271.207031 C 269.300781 268.171875 274.34375 261.660156 273.769531 254.648438 C 273.214844 247.847656 267.660156 241.558594 260.574219 241.578125 C 258.515625 241.585938 258.511719 244.78125 260.574219 244.773438 "/>
</svg>
